<svg width="50" height="50" viewBox="0 0 50 50" fill="none" xmlns="http://www.w3.org/2000/svg">
<path d="M31.25 4.16663H18.75C17.5994 4.16663 16.6667 5.09937 16.6667 6.24996V10.4166C16.6667 11.5672 17.5994 12.5 18.75 12.5H31.25C32.4006 12.5 33.3333 11.5672 33.3333 10.4166V6.24996C33.3333 5.09937 32.4006 4.16663 31.25 4.16663Z" stroke="#C1839F" stroke-width="2" stroke-linecap="round" stroke-linejoin="round"/>
<path d="M33.3333 8.33337H37.5C38.6051 8.33337 39.6649 8.77236 40.4463 9.55376C41.2277 10.3352 41.6667 11.395 41.6667 12.5V41.6667C41.6667 42.7718 41.2277 43.8316 40.4463 44.613C39.6649 45.3944 38.6051 45.8334 37.5 45.8334H12.5C11.3949 45.8334 10.3351 45.3944 9.55372 44.613C8.77231 43.8316 8.33333 42.7718 8.33333 41.6667V12.5C8.33333 11.395 8.77231 10.3352 9.55372 9.55376C10.3351 8.77236 11.3949 8.33337 12.5 8.33337H16.6667" stroke="#C1839F" stroke-width="2" stroke-linecap="round" stroke-linejoin="round"/>
<path d="M25 22.9166H33.3333" stroke="#C1839F" stroke-width="2" stroke-linecap="round" stroke-linejoin="round"/>
<path d="M25 33.3334H33.3333" stroke="#C1839F" stroke-width="2" stroke-linecap="round" stroke-linejoin="round"/>
<path d="M16.6667 22.9166H16.6875" stroke="#C1839F" stroke-width="2" stroke-linecap="round" stroke-linejoin="round"/>
<path d="M16.6667 33.3334H16.6875" stroke="#C1839F" stroke-width="2" stroke-linecap="round" stroke-linejoin="round"/>
</svg>
