<svg width="45" height="45" viewBox="0 0 45 45" fill="none" xmlns="http://www.w3.org/2000/svg">
<path d="M39.7013 12.7725C40.6926 11.7814 41.2496 10.4371 41.2498 9.03533C41.25 7.63356 40.6933 6.28912 39.7022 5.29779C38.7111 4.30647 37.3668 3.74944 35.965 3.74927C34.5633 3.74909 33.2188 4.30578 32.2275 5.29686L7.20375 30.3262C6.76841 30.7603 6.44646 31.2947 6.26625 31.8825L3.78937 40.0425C3.74092 40.2046 3.73726 40.3769 3.77878 40.541C3.82031 40.705 3.90547 40.8548 4.02524 40.9744C4.14501 41.0939 4.29491 41.1789 4.45905 41.2201C4.62318 41.2614 4.79542 41.2575 4.9575 41.2087L13.1194 38.7337C13.7066 38.5551 14.2409 38.2352 14.6756 37.8019L39.7013 12.7725Z" stroke="#C1839F" stroke-width="2" stroke-linecap="round" stroke-linejoin="round"/>
<path d="M28.125 9.375L35.625 16.875" stroke="#C1839F" stroke-width="2" stroke-linecap="round" stroke-linejoin="round"/>
</svg>
